<svg xmlns="http://www.w3.org/2000/svg" viewBox="0 0 267.83 165.94"><defs><style>.cls-1{fill:#111110;}.cls-2{fill:#3a3a3a;}</style></defs><g id="Layer_2" data-name="Layer 2"><g id="CV_White" data-name="CV White"><path class="cls-1" d="M194.62,101.83l11.93-20.67,28.57-49.47a5.51,5.51,0,0,0-4.77-8.26H216a5.51,5.51,0,0,0-4.77,2.75l-17.43,30.2a.9.9,0,0,1-1.56,0l-17.44-30.2A5.51,5.51,0,0,0,170,23.43H155.7a5.51,5.51,0,0,0-4.77,8.26L178.7,79.81a.9.9,0,0,1-.77,1.35H75.36a.9.9,0,0,1-.78-.45l-16.14-28a.9.9,0,0,1,0-.9l16.14-28a.9.9,0,0,1,.78-.45h57.15a5.51,5.51,0,0,0,4.77-8.26L130.11,2.75A5.51,5.51,0,0,0,125.34,0H64.5a5.51,5.51,0,0,0-4.77,2.75l-27,46.79a5.53,5.53,0,0,0,0,5.51l27,46.78a5.49,5.49,0,0,0,4.77,2.76H189.85A5.52,5.52,0,0,0,194.62,101.83Z"/><ellipse class="cls-1" cx="115.96" cy="52.29" rx="14.21" ry="26.04"/><path class="cls-2" d="M8,131A4.43,4.43,0,0,1,11.11,130,4.44,4.44,0,0,1,14.28,131a4,4,0,0,1,1.12,3.05h6.83a9.76,9.76,0,0,0-1.39-5.28A9.56,9.56,0,0,0,17,125.28,12.82,12.82,0,0,0,11.16,124a13.06,13.06,0,0,0-5.88,1.25,9.49,9.49,0,0,0-3.89,3.49A9.76,9.76,0,0,0,0,134.05v14.12a9.77,9.77,0,0,0,1.39,5.26,9.33,9.33,0,0,0,3.89,3.51,12.93,12.93,0,0,0,5.88,1.25A12.69,12.69,0,0,0,17,156.94a9.4,9.4,0,0,0,3.87-3.51,9.77,9.77,0,0,0,1.39-5.26H15.4a4,4,0,0,1-1.12,3,4.36,4.36,0,0,1-3.17,1.07A4.35,4.35,0,0,1,8,151.2a4,4,0,0,1-1.12-3V134.05A4,4,0,0,1,8,131Z"/><path class="cls-2" d="M42.18,148a4.57,4.57,0,0,1-1,3.21,3.72,3.72,0,0,1-2.89,1.11,3.71,3.71,0,0,1-2.91-1.11,4.66,4.66,0,0,1-1-3.21V132.69H27.51V148a9.86,9.86,0,0,0,2.85,7.47q2.85,2.73,7.9,2.73t7.88-2.71A9.77,9.77,0,0,0,49,148v-15.3H42.18Z"/><path class="cls-2" d="M69.15,132.23a6.4,6.4,0,0,0-7,5.24H62v-4.78H55.66v25.05H62.5V142.25a4.63,4.63,0,0,1,1-3.19,3.8,3.8,0,0,1,3-1.14,4,4,0,0,1,3,1.14,4.39,4.39,0,0,1,1.11,3.19v1.6h7.29v-2q0-4.56-2.3-7.06A8.3,8.3,0,0,0,69.15,132.23Z"/><path class="cls-2" d="M96.82,127.77a3.6,3.6,0,0,0,0-5.2,5.16,5.16,0,0,0-6,0,3.58,3.58,0,0,0,0,5.2,5.16,5.16,0,0,0,6,0Z"/><polygon class="cls-2" points="97.48 132.69 83.58 132.69 83.58 138.84 91.1 138.84 91.1 151.54 82.45 151.54 82.45 157.74 104.77 157.74 104.77 151.54 97.48 151.54 97.48 132.69"/><path class="cls-2" d="M126.06,133.48a14.06,14.06,0,0,0-11.59,0,9.25,9.25,0,0,0-3.81,3.51,10.13,10.13,0,0,0-1.34,5.26v5.92a10.11,10.11,0,0,0,1.34,5.26,9.12,9.12,0,0,0,3.81,3.51,14.06,14.06,0,0,0,11.59,0,9.16,9.16,0,0,0,3.78-3.51,10,10,0,0,0,1.34-5.26v-5.92a10,10,0,0,0-1.34-5.26A9.29,9.29,0,0,0,126.06,133.48Zm-1.71,14.69a4.13,4.13,0,0,1-1,3,4,4,0,0,1-3,1.07,3.73,3.73,0,0,1-4.1-4.1v-5.92a4.1,4.1,0,0,1,1.07-3.05,4.17,4.17,0,0,1,3-1,3.68,3.68,0,0,1,4.1,4.1Z"/><path class="cls-1" d="M148.77,145.44c-.16.76-.32,1.7-.5,2.82s-.34,2.09-.46,2.87c-.12-.78-.3-1.74-.52-2.87l-.57-2.77-4.6-21h-7.06l8.24,33.25H152l8.15-33.25h-6.88Z"/><path class="cls-1" d="M180.72,133.48a12.54,12.54,0,0,0-5.76-1.25,12.79,12.79,0,0,0-5.81,1.25,9.18,9.18,0,0,0-3.83,3.51,10.13,10.13,0,0,0-1.34,5.26v5.92a10.11,10.11,0,0,0,1.34,5.26,9.05,9.05,0,0,0,3.83,3.51,12.66,12.66,0,0,0,5.81,1.25,11.83,11.83,0,0,0,6.94-2,8.93,8.93,0,0,0,3.72-5.28h-6.7a2.67,2.67,0,0,1-1.3,1.5,5.3,5.3,0,0,1-2.57.55,4.51,4.51,0,0,1-3.42-1.21,5,5,0,0,1-1.14-3.58v-1.36h15.35v-4.56A10,10,0,0,0,184.5,137,9.29,9.29,0,0,0,180.72,133.48Zm-10.23,8.77a5.31,5.31,0,0,1,1.12-3.6,4.21,4.21,0,0,1,3.35-1.27,4.14,4.14,0,0,1,3.3,1.23,5.27,5.27,0,0,1,1.07,3.55v.69l-8.84.09Z"/><path class="cls-1" d="M205.8,132.23a6.4,6.4,0,0,0-7,5.24h-.07v-4.78h-6.38v25.05h6.83V142.25a4.63,4.63,0,0,1,1-3.19,3.8,3.8,0,0,1,3-1.14,4,4,0,0,1,3,1.14,4.39,4.39,0,0,1,1.11,3.19v1.6h7.29v-2q0-4.56-2.3-7.06A8.3,8.3,0,0,0,205.8,132.23Z"/><path class="cls-1" d="M233.63,137.47h-.13a6.19,6.19,0,0,0-1.65-3.44,6.53,6.53,0,0,0-4.87-1.8,7.57,7.57,0,0,0-6.06,2.67,10.57,10.57,0,0,0-2.28,7.12v4.56a10.56,10.56,0,0,0,2.28,7.15,7.61,7.61,0,0,0,6.06,2.64,6.53,6.53,0,0,0,4.87-1.8,6.16,6.16,0,0,0,1.65-3.44h.13l-.09,4.79v1a3.46,3.46,0,0,1-1,2.65,4.17,4.17,0,0,1-2.94.95h-7.06v5.47h7.29a11.44,11.44,0,0,0,7.63-2.37,8,8,0,0,0,2.8-6.47V132.69H233.4Zm-4.19,13a3.88,3.88,0,0,1-2.94-1.07,4.17,4.17,0,0,1-1-3v-4.1a4.2,4.2,0,0,1,1-3,4.53,4.53,0,0,1,5.85,0,4.17,4.17,0,0,1,1.05,3v4.1a4.13,4.13,0,0,1-1.05,3A3.9,3.9,0,0,1,229.44,150.45Z"/><path class="cls-1" d="M267.83,146.81v-4.56a10,10,0,0,0-1.34-5.26,9.23,9.23,0,0,0-3.78-3.51,12.51,12.51,0,0,0-5.76-1.25,12.82,12.82,0,0,0-5.81,1.25,9.24,9.24,0,0,0-3.83,3.51,10.13,10.13,0,0,0-1.34,5.26v5.92a10.11,10.11,0,0,0,1.34,5.26,9.11,9.11,0,0,0,3.83,3.51,12.69,12.69,0,0,0,5.81,1.25,11.88,11.88,0,0,0,6.95-2,9,9,0,0,0,3.71-5.28h-6.7a2.63,2.63,0,0,1-1.3,1.5A5.3,5.3,0,0,1,257,153a4.51,4.51,0,0,1-3.42-1.21,5,5,0,0,1-1.14-3.58v-1.36Zm-15.35-4.56a5.31,5.31,0,0,1,1.12-3.6,4.21,4.21,0,0,1,3.35-1.27,4.14,4.14,0,0,1,3.3,1.23,5.27,5.27,0,0,1,1.07,3.55v.69l-8.84.09Z"/></g></g></svg>